# AST/ASF file generated using VICON BodyLanguage
# -----------------------------------------------
:version 1.10
:name VICON
:units
  mass 1.0
  length 0.45
  angle deg
:documentation
   .ast/.asf automatically generated from VICON data using
   VICON BodyBuilder and BodyLanguage model FoxedUp or BRILLIANT.MOD
:root
   order TX TY TZ RX RY RZ
   axis XYZ
   position 0 0 0  
   orientation 0 0 0 
:bonedata
  begin
     id 1 
     name lhipjoint
     direction 0.521452 -0.77106 0.36545 
     length 2.0933 
     axis 0 0 0  XYZ
  end
  begin
     id 2 
     name lfemur
     direction 0.34202 -0.939693 0  
     length 6.83441  
     axis 0 0 20  XYZ
    dof rx ry rz
    limits (-160.0 20.0)
           (-70.0 70.0)
           (-60.0 70.0)
  end
  begin
     id 3 
     name ltibia
     direction 0.34202 -0.939693 0   
     length 7.28749   
     axis 0 0 20   XYZ
    dof rx
    limits (-10.0 170.0)
  end
  begin
     id 4 
     name lfoot
     direction 0.100608 -0.276418 0.955757   
     length 1.52195   
     axis -90 7.62852e-016 20   XYZ
    dof rx rz
    limits (-45.0 90.0)
           (-70.0 20.0)
  end
  begin
     id 5 
     name ltoes
     direction 1.53558e-011 -4.21907e-011 1   
     length 0.770459   
     axis -90 7.62852e-016 20   XYZ
    dof rx
    limits (-90.0 20.0)
  end
  begin
     id 6 
     name rhipjoint
     direction -0.488071 -0.788702 0.373812   
     length 2.04648  
     axis 0 0 0  XYZ 
  end
  begin
     id 7 
     name rfemur
     direction -0.34202 -0.939693 0   
     length 6.92583   
     axis 0 0 -20   XYZ
    dof rx ry rz
    limits (-160.0 20.0)
           (-70.0 70.0)
           (-70.0 60.0)
  end
  begin
     id 8 
     name rtibia
     direction -0.34202 -0.939693 0   
     length 7.41043   
     axis 0 0 -20   XYZ
    dof rx
    limits (-10.0 170.0)
 end
 begin
     id 9 
     name rfoot
     direction -0.0784433 -0.215521 0.973343   
     length 1.67708  
     axis -90 -7.62852e-016 -20   XYZ
    dof rx rz
    limits (-45.0 90.0)
           (-20.0 70.0)
  end
  begin
     id 10 
     name rtoes
     direction -1.53551e-011 -4.21842e-011 1   
     length 0.849787   
     axis -90 -7.62852e-016 -20   XYZ
    dof rx
    limits (-90.0 20.0)
  end
  begin
     id 11 
     name lowerback
     direction -0.0122332 0.997575 -0.0685192   
     length 1.98724   
     axis 0 0 0   XYZ
    dof rx ry rz
    limits (-20.0 45.0)
           (-30.0 30.0)
           (-30.0 30.0)
  end
  begin
     id 12 
     name upperback
     direction 0.0182347 0.999724 -0.0148421   
     length 1.99029   
     axis 0 0 0   XYZ
    dof rx ry rz
    limits (-20.0 45.0)
           (-30.0 30.0)
           (-30.0 30.0)
  end
  begin
     id 13 
     name thorax
     direction 0.0242908 0.99956 0.0170184   
     length 1.99573   
     axis 0 0 0   XYZ
    dof rx ry rz
    limits (-20.0 45.0)
           (-30.0 30.0)
           (-30.0 30.0)
  end
  begin
     id 14 
     name lowerneck
     direction 0.0654488 0.985533 0.156338   
     length 1.4285   
     axis 0 0 0   XYZ
    dof rx ry rz
    limits (-20.0 45.0)
           (-30.0 30.0)
           (-30.0 30.0)
  end
  begin
     id 15 
     name upperneck
     direction -0.02953 0.998556 -0.0448842   
     length 1.44709   
     axis 0 0 0   XYZ
    dof rx ry rz
    limits (-20.0 45.0)
           (-30.0 30.0)
           (-30.0 30.0)
  end
  begin
     id 16
     name head
     direction -0.0155588 0.999386 -0.0314063  
     length 1.44689  
     axis 0 0 0   XYZ
    dof rx ry rz
    limits (-20.0 45.0)
           (-30.0 30.0)
           (-30.0 30.0)
  end
  begin
     id 17 
     name lclavicle
     direction 0.968229 0.236071 -0.0824755  
     length 3.60593  
     axis 0 0 0   XYZ
    dof ry rz
    limits (-20.0 10.0)
           (0.0 20.0)
  end
  begin
     id 18 
     name lhumerus
     direction 1 -4.48968e-011 7.8138e-029   
     length 5.06035   
     axis 180 -30 -90   XYZ
    dof rx ry rz
    limits (-60.0 90.0)
           (-90.0 90.0)
           (-90.0 90.0)
  end
  begin
     id 19
     name lradius
     direction 1 -4.48967e-011 9.02887e-028   
     length 3.1478   
     axis 180 -30 -90   XYZ
    dof rx
    limits (-10.0 170.0)
  end
  begin
     id 20
     name lwrist
     direction 1 -4.48961e-011 7.20928e-028   
     length 1.5739   
     axis -5.52449e-016 90 90   XYZ
    dof ry
    limits (-180.0 0.0)
 end
  begin
     id 21 
     name lhand
     direction 1 -4.48972e-011 1.44186e-027   
     length 0.606747   
     axis -9.20027e-016 90 90   XYZ
    dof rx rz
    limits (-90.0 90.0)
           (-45.0 45.0)
  end
  begin
     id 22 
     name lfingers
     direction 1 -4.48943e-011 2.88371e-027   
     length 0.489175   
     axis -1.84005e-015 90 90   XYZ
    dof rx
    limits (0.0 90.0)
  end
  begin
     id 23
     name lthumb
     direction 0.707107 -6.34917e-011 0.707107   
     length 0.70236   
     axis -90 45 2.85299e-015   XYZ
    dof rx rz
    limits (-45.0 45.0)
           (-45.0 45.0)
  end
  begin
     id 24 
     name rclavicle
     direction -0.978165 0.207816 0.0022268   
     length 3.35425  
     axis 0 0 0   XYZ 
    dof ry rz
    limits (-10.0 20.0)
           (-20.0 0.0)
  end
  begin
     id 25 
     name rhumerus
     direction -1 -4.48964e-011 -4.02159e-027  
     length 5.12273   
     axis 180 30 90   XYZ
    dof rx ry rz
    limits (-90.0 60.0)
           (-90.0 90.0)
           (-90.0 90.0)
  end
  begin
     id 26 
     name rradius
     direction -1 -4.48966e-011 1.62746e-027   
     length 3.422   
     axis 180 30 90   XYZ
    dof rx
    limits (-10.0 170.0)
  end
  begin
     id 27 
     name rwrist
     direction -1 -4.4896e-011 7.20928e-028   
     length 1.711   
     axis -5.52449e-016 -90 -90   XYZ
    dof ry
    limits (-180.0 0.0)
  end
  begin
     id 28
     name rhand
     direction -1 -4.48979e-011 1.44186e-027   
     length 0.704599   
     axis -9.20027e-016 -90 -90   XYZ
    dof rx rz
    limits (-90.0 90.0)
           (-45.0 45.0)
  end
  begin
     id 29
     name rfingers
     direction -1 -4.48962e-011 2.88371e-027   
     length 0.568066   
     axis -1.84005e-015 -90 -90   XYZ
    dof rx
    limits (0.0 90.0)
  end
  begin
     id 30
     name rthumb
     direction -0.707107 -6.34949e-011 0.707107   
     length 0.815633   
     axis -90 -45 -2.85299e-015   XYZ
    dof rx rz
    limits (-45.0 45.0)
           (-45.0 45.0)
  end
:hierarchy
  begin
    root lhipjoint rhipjoint lowerback
    lhipjoint lfemur
    lfemur ltibia
    ltibia lfoot
    lfoot ltoes
    rhipjoint rfemur
    rfemur rtibia
    rtibia rfoot
    rfoot rtoes
    lowerback upperback
    upperback thorax
    thorax lowerneck lclavicle rclavicle
    lowerneck upperneck
    upperneck head
    lclavicle lhumerus
    lhumerus lradius
    lradius lwrist
    lwrist lhand lthumb
    lhand lfingers
    rclavicle rhumerus
    rhumerus rradius
    rradius rwrist
    rwrist rhand rthumb
    rhand rfingers
  end

#!OML:ASF E:\id_vita\Project 1\Capture day 1\Session 1\Male1.ASF
:FULLY-SPECIFIED
:DEGREES
57
root 30.648 15.835 1.20639 -104.897 -87.8308 110.499
lowerback -2.58354 -5.02745 -5.35512
upperback 1.16545 -6.56152 1.65607
thorax 3.44958 -3.40561 4.2918
lowerneck -1.74265 -3.20175 1.28858
upperneck -6.62529 -4.57848 -3.06947
head -1.88326 -2.31172 -1.12439
rclavicle -8.19738e-014 3.97569e-015
rhumerus -60.5512 -48.751 -34.63
rradius 11.6517
rwrist 40.0362
rhand -22.5731 32.4634
rfingers 7.12502
rthumb 3.85536 2.5185
lclavicle -8.19738e-014 3.97569e-015
lhumerus -10.0109 5.29271 84.5546
lradius 30.4839
lwrist 6.89731
lhand -12.7874 45.9144
lfingers 7.12502
lthumb 13.2981 75.4701
rfemur -34.6124 3.12476 17.9316
rtibia 29.6567
rfoot -2.87264 1.1347
rtoes -0.0406575
lfemur 18.8006 -3.78267 -23.7098
ltibia 12.1554
lfoot -3.75734 -8.08564
ltoes 45.9948
58
root 30.4481 15.8521 1.18589 -107.455 -88.2879 113.114
lowerback -2.73775 -5.23424 -4.98518
upperback 0.88108 -6.8579 2.0062
thorax 3.27491 -3.54066 4.42638
lowerneck -1.23763 -3.04798 0.652337
upperneck -6.46636 -4.36423 -3.1338
head -1.89966 -2.18222 -1.03251
rclavicle -3.46382e-014 -2.38542e-015
rhumerus -62.1771 -49.2661 -31.878
rradius 11.2842
rwrist 42.4699
rhand -22.3723 32.4608
rfingers 7.12502
rthumb 4.0493 2.51949
lclavicle -3.46382e-014 -2.38542e-015
lhumerus -11.1742 6.67892 84.7766
lradius 30.3292
lwrist 6.86633
lhand -12.6235 44.9884
lfingers 7.12502
lthumb 13.4561 74.5338
rfemur -34.2367 2.89255 18.6807
rtibia 30.3475
rfoot -3.32511 0.649213
rtoes -1.7513
lfemur 17.6601 -3.56855 -23.0284
ltibia 15.3988
lfoot -2.15239 -8.2416
ltoes 45.311
59
root 30.2502 15.8665 1.16143 -104.7 -88.3287 110.318
lowerback -2.78665 -5.11572 -4.80308
upperback 0.906026 -6.69852 1.85686
thorax 3.26936 -3.45521 4.17957
lowerneck -1.82925 -3.17859 0.619544
upperneck -6.03146 -4.51134 -2.96059
head -1.65367 -2.26571 -0.981703
rclavicle -1.72943e-014 -7.95139e-016
rhumerus -62.8122 -49.5959 -31.4943
rradius 11.3039
rwrist 42.4971
rhand -22.1309 32.0859
rfingers 7.12502
rthumb 4.2824 2.14916
lclavicle -1.72943e-014 -7.95139e-016
lhumerus -11.5642 6.48002 84.8549
lradius 30.0744
lwrist 7.23266
lhand -12.3317 44.5304
lfingers 7.12502
lthumb 13.7373 74.0569
rfemur -33.7882 2.572 18.9567
rtibia 31.0685
rfoot -4.27049 0.703649
rtoes -1.79073
lfemur 16.5023 -3.35833 -22.8299
ltibia 18.6007
lfoot -0.0137463 -8.34094
ltoes 44.668
60
root 30.0566 15.8825 1.12924 -103.506 -88.4522 108.967
lowerback -2.70676 -5.09412 -4.7118
upperback 0.887011 -6.67548 1.82086
thorax 3.18694 -3.43926 4.10279
lowerneck -1.89667 -3.18045 0.316865
upperneck -5.8623 -4.48697 -2.645
head -1.57016 -2.25222 -0.834231
rclavicle 8.63471e-014 -5.56597e-015
rhumerus -62.007 -49.0468 -32.8973
rradius 11.376
rwrist 41.3364
rhand -21.9783 31.9324
rfingers 7.12502
rthumb 4.42975 1.99874
lclavicle 8.63471e-014 -5.56597e-015
lhumerus -12.1966 6.40246 84.8976
lradius 29.7706
lwrist 7.44515
lhand -12.0433 44.9674
lfingers 7.12502
lthumb 14.0153 74.4749
rfemur -33.1681 2.4977 19.3003
rtibia 31.7942
rfoot -5.44524 0.606766
rtoes -2.2371
lfemur 15.3215 -3.06511 -22.4646
ltibia 21.7617
lfoot 2.25941 -8.14985
ltoes 43.9159
61
root 29.8702 15.9026 1.10028 -99.6588 -88.6867 104.992
lowerback -2.53856 -5.09477 -4.57722
upperback 0.703956 -6.68973 1.83895
thorax 2.89048 -3.43413 4.07245
lowerneck -1.27653 -3.22107 0.32855
upperneck -6.07342 -4.54515 -2.64061
head -1.7462 -2.27255 -0.822746
rclavicle -2.43511e-014 3.97569e-016
rhumerus -62.0898 -48.6933 -33.1562
rradius 11.3662
rwrist 40.8654
rhand -21.9967 31.8509
rfingers 7.12502
rthumb 4.41192 1.91682
lclavicle -2.43511e-014 3.97569e-016
lhumerus -13.1804 6.4722 84.9403
lradius 29.4571
lwrist 7.42222
lhand -11.8117 45.1673
lfingers 7.12502
lthumb 14.2384 74.6592
rfemur -32.5028 2.5114 19.6724
rtibia 32.4261
rfoot -6.38806 0.0288474
rtoes -3.64445
lfemur 13.9234 -2.82034 -21.9735
ltibia 24.9779
lfoot 4.62071 -7.65043
ltoes 43.693
62
root 29.6883 15.9235 1.07331 -88.1109 -88.9391 93.3266
lowerback -2.13637 -5.12115 -4.64345
upperback 0.488835 -6.74914 2.09327
thorax 2.48781 -3.45597 4.41657
lowerneck -1.20853 -3.29884 0.117065
upperneck -6.00921 -4.65816 -2.81391
head -1.73889 -2.32161 -0.839299
rclavicle -5.02428e-014 3.57812e-015
rhumerus -62.2741 -48.6654 -32.649
rradius 11.2405
rwrist 41.1081
rhand -22.1587 31.55
rfingers 7.12502
rthumb 4.25549 1.61279
lclavicle -5.02428e-014 3.57812e-015
lhumerus -14.0935 6.90619 85.3169
lradius 29.0774
lwrist 7.1945
lhand -11.9521 44.8433
lfingers 7.12502
lthumb 14.1032 74.3447
rfemur -31.7651 2.39488 20.0567
rtibia 32.8564
rfoot -7.22243 -0.48568
rtoes -4.59384
lfemur 12.4153 -2.76338 -21.5034
ltibia 28.259
lfoot 7.13863 -7.60593
ltoes 42.242
63
root 29.5094 15.9428 1.04629 -52.5621 -89.2802 57.5811
lowerback -1.98276 -5.24566 -4.14497
upperback 0.544733 -6.93834 2.18681
thorax 2.43298 -3.54525 4.23785
lowerneck -1.38971 -3.29167 -0.166509
upperneck -5.97033 -4.63752 -2.60973
head -1.68084 -2.31152 -0.731571
rclavicle 1.41386e-014 1.19271e-014
rhumerus -61.9343 -48.7113 -33.1587
rradius 11.2295
rwrist 41.2508
rhand -22.1875 31.3146
rfingers 7.12502
rthumb 4.22775 1.37681
lclavicle 1.41386e-014 1.19271e-014
lhumerus -14.6291 7.41079 85.3304
lradius 28.5617
lwrist 6.84146
lhand -11.9606 44.6225
lfingers 7.12502
lthumb 14.095 74.1245
rfemur -30.8441 1.94297 20.7702
rtibia 33.0508
rfoot -8.11809 -0.580067
rtoes -4.50547
lfemur 10.9823 -2.87177 -20.7841
ltibia 31.5096
lfoot 9.74204 -8.16034
ltoes 39.1613
64
root 29.3324 15.9641 1.02525 -0.940934 -89.0865 5.7014
lowerback -1.96315 -5.08394 -3.34367
upperback 0.947199 -6.74107 2.00614
thorax 2.70053 -3.44427 3.60502
lowerneck -2.18026 -3.52796 0.487092
upperneck -6.06595 -4.96176 -2.58217
head -1.59766 -2.4973 -0.841973
rclavicle -7.74515e-014 1.25234e-014
rhumerus -61.784 -49.3188 -34.0905
rradius 11.3999
rwrist 40.6331
rhand -21.961 31.3664
rfingers 7.12502
rthumb 4.44646 1.43304
lclavicle -7.74515e-014 1.25234e-014
lhumerus -14.3385 6.9199 85.3833
lradius 27.7942
lwrist 6.39705
lhand -11.7453 44.722
lfingers 7.12502
lthumb 14.3025 74.2094
rfemur -29.74 1.28915 21.5471
rtibia 33.0248
rfoot -9.03344 -0.449644
rtoes -5.14057
lfemur 9.61327 -3.08992 -20.057
ltibia 34.7013
lfoot 11.7938 -8.51456
ltoes 36.3324
65
root 29.1539 15.9918 1.0073 21.9923 -88.7634 -17.4723
lowerback -1.45845 -5.15901 -2.99977
upperback 0.786863 -6.87165 2.29683
thorax 2.25948 -3.50015 3.76456
lowerneck -1.76779 -3.54252 0.392983
upperneck -6.51285 -5.01506 -2.80598
head -1.81801 -2.5141 -0.884777
rclavicle -2.6339e-015 -3.16068e-014
rhumerus -59.7325 -48.0024 -36.5678
rradius 11.4645
rwrist 39.0618
rhand -21.6828 31.5065
rfingers 7.12502
rthumb 4.71504 1.57894
lclavicle -2.6339e-015 -3.16068e-014
lhumerus -15.2205 7.74669 85.6508
lradius 27.2381
lwrist 5.68938
lhand -11.6889 44.9291
lfingers 7.12502
lthumb 14.3568 74.4126
rfemur -28.5552 0.962312 22.1919
rtibia 32.7864
rfoot -9.79933 -0.499292
rtoes -6.2984
lfemur 8.2167 -3.21813 -19.4845
ltibia 37.8344
lfoot 13.0821 -8.38584
ltoes 34.7167
66
root 28.9772 16.0208 0.98969 38.5417 -88.4049 -34.1746
lowerback -1.695 -5.01841 -2.27814
upperback 1.00937 -6.69716 2.20784
thorax 2.51083 -3.40741 3.25262
lowerneck -1.70112 -3.69588 0.434546
upperneck -6.43243 -5.20757 -2.69514
head -1.80482 -2.61118 -0.853922
rclavicle -7.16122e-014 5.36719e-015
rhumerus -57.3248 -46.7273 -40.4479
rradius 11.8297
rwrist 36.2752
rhand -21.4443 31.2653
rfingers 7.12502
rthumb 4.94535 1.34296
lclavicle -7.16122e-014 5.36719e-015
lhumerus -15.4739 7.49616 85.5973
lradius 26.537
lwrist 5.15829
lhand -11.4975 45.0349
lfingers 7.12502
lthumb 14.5412 74.5053
rfemur -27.4104 0.760037 22.8895
rtibia 32.3672
rfoot -10.4381 -0.591688
rtoes -6.1655
lfemur 6.71716 -3.25451 -18.8667
ltibia 40.907
lfoot 13.4512 -7.84171
ltoes 34.7041
67
root 28.8056 16.0461 0.973767 47.7046 -87.9193 -43.4335
lowerback -1.6115 -4.79177 -1.56288
upperback 1.16158 -6.4173 2.21087
thorax 2.52009 -3.25852 2.87831
lowerneck -2.4663 -3.86264 0.203765
upperneck -5.90918 -5.38962 -2.34885
head -1.48996 -2.71172 -0.725449
rclavicle -6.28657e-015 6.95746e-015
rhumerus -57.671 -47.8096 -39.9052
rradius 11.5741
rwrist 37.172
rhand -21.3758 31.4673
rfingers 7.12502
rthumb 5.01149 1.5466
lclavicle -6.28657e-015 6.95746e-015
lhumerus -15.5354 7.17071 85.798
lradius 25.6635
lwrist 4.40462
lhand -11.3098 44.2571
lfingers 7.12502
lthumb 14.7221 73.7143
rfemur -26.2789 0.417107 23.5939
rtibia 31.7891
rfoot -10.9488 -0.620667
rtoes -6.39219
lfemur 5.21227 -3.28016 -18.2561
ltibia 43.9338
lfoot 12.5141 -7.13016
ltoes 36.5967
68
root 28.6366 16.0725 0.960517 54.0845 -87.401 -49.9325
lowerback -1.35636 -4.79267 -0.912233
upperback 1.04322 -6.43922 2.38503
thorax 2.20462 -3.25915 2.72828
lowerneck -2.32485 -3.79211 -0.453018
upperneck -5.68578 -5.26012 -2.00755
head -1.41095 -2.63648 -0.512093
rclavicle -9.26088e-014 1.55052e-014
rhumerus -55.4633 -46.278 -42.8782
rradius 11.7198
rwrist 35.4367
rhand -21.1094 31.6462
rfingers 7.12502
rthumb 5.26869 1.73165
lclavicle -9.26088e-014 1.55052e-014
lhumerus -16.2853 7.75676 85.8784
lradius 24.9478
lwrist 3.39322
lhand -11.4157 43.3199
lfingers 7.12502
lthumb 14.62 72.7846
rfemur -25.0742 0.0594234 24.3159
rtibia 31.0852
rfoot -11.3999 -0.631459
rtoes -6.97422
lfemur 3.73311 -3.18387 -17.6052
ltibia 46.8872
lfoot 11.0702 -6.47294
ltoes 38.7953
69
root 28.4684 16.0985 0.947619 60.8077 -86.6671 -56.8907
lowerback -1.27978 -4.75662 -0.180058
upperback 1.15785 -6.42348 2.68841
thorax 2.23358 -3.24791 2.63855
lowerneck -1.98049 -3.77714 -0.564033
upperneck -6.08929 -5.27044 -2.18911
head -1.6009 -2.63329 -0.538438
rclavicle 4.64659e-014 -8.94531e-015
rhumerus -52.6007 -44.2929 -46.6977
rradius 12.0913
rwrist 32.845
rhand -20.7011 31.795
rfingers 7.12502
rthumb 5.66291 1.89072
lclavicle 4.64659e-014 -8.94531e-015
lhumerus -16.7118 8.4246 86.0632
lradius 24.1356
lwrist 2.24569
lhand -11.3384 43.6392
lfingers 7.12502
lthumb 14.6944 73.0984
rfemur -23.6911 -0.183083 25.3034
rtibia 30.2727
rfoot -11.8696 -0.675491
rtoes -6.91349
lfemur 2.29365 -2.9641 -16.6364
ltibia 49.7145
lfoot 9.60419 -5.80374
ltoes 40.799
70
root 28.302 16.1223 0.931535 66.1609 -85.9414 -62.5522
lowerback -1.08269 -4.63418 0.563046
upperback 1.22051 -6.28461 2.88794
thorax 2.12361 -3.17243 2.45514
lowerneck -1.0561 -3.90101 -0.670371
upperneck -6.84009 -5.46711 -2.05264
head -1.99801 -2.71829 -0.448558
rclavicle 7.50909e-014 -2.34566e-014
rhumerus -50.494 -42.4021 -49.8996
rradius 12.5007
rwrist 30.618
rhand -20.5829 31.8414
rfingers 7.12502
rthumb 5.77704 1.94014
lclavicle 7.50909e-014 -2.34566e-014
lhumerus -17.2278 8.88086 86.0747
lradius 23.1981
lwrist 0.948621
lhand -10.9076 44.3752
lfingers 7.12502
lthumb 15.1095 73.8037
rfemur -22.2285 -0.264145 26.2904
rtibia 29.4303
rfoot -12.0862 -0.820748
rtoes -7.71663
lfemur 0.869507 -2.6501 -15.6633
ltibia 52.3415
lfoot 8.21521 -5.04481
ltoes 42.9193
